<svg data-v-1084b650="" xmlns="http://www.w3.org/2000/svg" viewBox="0 0 300 300"><!----> <!----> <rect data-v-1084b650="" fill="#ffffff" x="0" y="0" width="300px" height="300px" class="logo-background-square"></rect> <!----> <g data-v-1084b650="" id="2bf45cc1-380d-cdf6-45db-f0ffce0558ee" fill="#000000" transform="matrix(4.299999999999999,0,0,4.299999999999999,30.48150708675388,167.0022043466568)"><path d="M0.49 13.30L4.62 13.30L4.62 12.89C3.18 12.81 3.14 12.78 3.14 12.00L3.14 9.32L3.93 9.32C4.58 9.32 5.21 9.27 5.73 9.14C6.80 8.86 8.04 8.11 8.04 6.36C8.04 5.29 7.57 4.56 6.94 4.17C6.27 3.75 5.38 3.61 4.40 3.61L0.49 3.61L0.49 4.02C1.72 4.10 1.75 4.13 1.75 4.91L1.75 12.00C1.75 12.78 1.72 12.81 0.49 12.89ZM3.14 8.29L3.14 4.62C3.14 4.23 3.29 4.10 4.20 4.10C5.64 4.10 6.52 4.93 6.52 6.45C6.52 8.20 5.38 8.83 4.17 8.83C3.35 8.83 3.14 8.81 3.14 8.29ZM8.67 9.87C8.67 12.14 9.77 13.47 12.03 13.47C14.28 13.47 15.39 12.14 15.39 9.87C15.39 7.60 14.28 6.27 12.03 6.27C9.77 6.27 8.67 7.60 8.67 9.87ZM10.12 9.87C10.12 7.94 10.74 6.76 12.03 6.76C13.31 6.76 13.93 7.94 13.93 9.87C13.93 11.80 13.31 12.98 12.03 12.98C10.74 12.98 10.12 11.80 10.12 9.87ZM16.74 9.94C16.74 12.28 17.89 13.47 19.99 13.47C20.97 13.47 22.29 12.95 22.68 11.45L22.27 11.26C21.84 12.24 21.28 12.74 20.26 12.74C18.59 12.74 18.20 11.00 18.20 9.69C18.20 7.60 19.03 6.76 19.99 6.76C20.64 6.76 21.04 7.22 21.32 7.98C21.41 8.20 21.49 8.34 21.76 8.34C22.04 8.34 22.58 8.16 22.58 7.63C22.58 6.99 21.66 6.27 20.15 6.27C17.60 6.27 16.74 8.08 16.74 9.94ZM23.30 13.30L26.70 13.30L26.70 12.89C25.73 12.82 25.65 12.77 25.65 12.08L25.65 8.81C25.65 8.46 25.66 8.26 25.77 8.05C26.07 7.49 26.71 7.03 27.45 7.03C28.41 7.03 28.92 7.56 28.92 8.78L28.92 12.08C28.92 12.77 28.85 12.82 27.87 12.89L27.87 13.30L31.29 13.30L31.29 12.89C30.32 12.82 30.24 12.77 30.24 12.08L30.24 8.50C30.24 7.08 29.47 6.27 28.17 6.27C27.15 6.27 26.52 6.75 25.63 7.34L25.63 3.00L25.54 2.91L23.35 3.26L23.35 3.61L23.88 3.68C24.25 3.74 24.33 3.81 24.33 4.31L24.33 12.08C24.33 12.77 24.28 12.82 23.30 12.89ZM32.82 3.65L33.31 6.80L33.59 6.80L34.08 3.65C34.15 3.15 33.96 2.91 33.45 2.91C32.93 2.91 32.75 3.15 32.82 3.65ZM35.88 13.30L43.15 13.30L43.32 10.79L42.90 10.79C42.62 12.63 41.85 12.81 40.38 12.81C39.68 12.81 39.17 12.78 38.88 12.67C38.58 12.54 38.53 12.31 38.53 11.62L38.53 4.91C38.53 4.13 38.57 4.10 39.87 4.02L39.87 3.61L35.88 3.61L35.88 4.02C37.11 4.10 37.14 4.13 37.14 4.91L37.14 12.00C37.14 12.78 37.11 12.81 35.88 12.89ZM44.63 4.14C44.63 4.65 44.98 5.00 45.49 5.00C45.99 5.00 46.34 4.65 46.34 4.14C46.34 3.64 45.99 3.29 45.49 3.29C44.98 3.29 44.63 3.64 44.63 4.14ZM43.79 13.30L47.21 13.30L47.21 12.89C46.21 12.82 46.16 12.80 46.16 12.08L46.16 6.36L46.06 6.27L43.86 6.62L43.86 6.97L44.39 7.04C44.76 7.10 44.84 7.17 44.84 7.67L44.84 12.08C44.84 12.80 44.80 12.82 43.79 12.89ZM47.70 3.61L48.23 3.67C48.59 3.71 48.68 3.78 48.68 4.31L48.68 13.36L48.93 13.47L49.49 12.92C49.98 13.20 50.57 13.47 51.62 13.47C53.48 13.47 55.10 12.57 55.10 9.72C55.10 8.85 54.92 6.27 52.40 6.27C51.34 6.27 50.51 6.96 49.99 7.27L49.99 3.00L49.90 2.91L47.70 3.26ZM49.99 11.02L49.99 8.81C49.99 8.46 50.02 8.23 50.13 8.01C50.47 7.34 51.06 7.03 51.84 7.03C52.42 7.03 53.65 7.36 53.65 9.80C53.65 11.86 53.02 12.98 51.63 12.98C50.89 12.98 50.34 12.60 50.09 11.90C50.01 11.65 49.99 11.35 49.99 11.02Z"></path></g> <linearGradient data-v-1084b650="" gradientTransform="rotate(25)" id="df147506-6e94-a9e5-a4f8-627945c8ebc2" x1="0%" y1="0%" x2="100%" y2="0%"><stop data-v-1084b650="" offset="0%" style="stop-color: rgb(23, 119, 117); stop-opacity: 1;"></stop> <stop data-v-1084b650="" offset="100%" style="stop-color: rgb(40, 210, 191); stop-opacity: 1;"></stop></linearGradient> <g data-v-1084b650="" id="a1dd3aa1-66f7-4ec4-a813-6d16c50cd24b" fill="url(#df147506-6e94-a9e5-a4f8-627945c8ebc2)" stroke="none" transform="matrix(0.6480422916110906,0,0,0.6480422916110906,52.79312936699735,21.4554908776676)"><svg xmlns="http://www.w3.org/2000/svg" xmlns:xlink="http://www.w3.org/1999/xlink" xmlns:a="http://ns.adobe.com/AdobeSVGViewerExtensions/3.0/" version="1.1" x="0px" y="0px" viewBox="-1.286 -24.917 100 100" enable-background="new -1.286 -24.917 100 100" xml:space="preserve"><path d="M35.03,35.148c-7.732-3.146-11.661-3.487-15.821-3.848c-4.101-0.354-8.347-0.729-16.382-3.95  c-0.597,0.901-1.09,2.651-1.487,4.772c8.261,2.153,12.443,1.988,16.477,1.821c4.081-0.168,8.298-0.341,16.548,1.847  c2.792,0.741,4.966,1.47,6.695,2.176C39.524,37.117,37.569,36.181,35.03,35.148z"></path><path d="M34.048,37.982c-8.068-2.141-12.008-1.98-16.182-1.808c-4.11,0.17-8.367,0.338-16.739-1.835  c-0.27,1.654-0.488,3.445-0.661,5.174c8.167,0.969,12.216,0.268,16.122-0.416c4.021-0.703,8.179-1.43,16.647-0.348  c3.312,0.424,5.807,0.94,7.732,1.5C39.258,39.53,37.023,38.771,34.048,37.982z"></path><path d="M16.801,41.31c-3.991,0.697-8.125,1.412-16.451,0.43C0.18,43.635,0.063,45.386,0,46.685  c8.365-0.059,12.312-1.281,16.133-2.465c3.901-1.208,7.934-2.457,16.469-2.457c2.886,0,5.174,0.146,7.025,0.387  c-1.702-0.43-3.83-0.831-6.547-1.178C24.8,39.912,20.914,40.591,16.801,41.31z"></path><path d="M79.611,33.969c4.043,0.165,8.232,0.333,16.533-1.835c-0.41-2.307-0.904-4.096-1.479-4.783  c-8.078,3.246-12.334,3.619-16.447,3.975c-4.16,0.361-8.09,0.7-15.822,3.849c-2.539,1.034-4.496,1.97-6.031,2.821  c1.729-0.707,3.904-1.438,6.699-2.178C71.312,33.628,75.531,33.802,79.611,33.969z"></path><path d="M94.041,25.278L85.287,0c-6.336,2.515-9.715,2.807-12.984,3.09c-3.342,0.289-6.498,0.562-12.707,3.089  c-8.611,3.506-9.078,5.696-9.328,6.873c-0.121,0.565-0.264,1.197-1.038,1.609v28.725c0.004-0.006,0.012-0.012,0.017-0.02  c0.036-0.052,0.068-0.115,0.1-0.184c0.065-0.158,0.114-0.348,0.174-0.625c0.39-1.831,1.042-4.896,12.414-9.523  c7.904-3.22,12.111-3.583,16.18-3.936C82.107,28.753,86.234,28.397,94.041,25.278z"></path><path d="M80.837,39.123c3.91,0.684,7.961,1.383,16.141,0.414c-0.172-1.79-0.383-3.569-0.633-5.184  c-8.398,2.184-12.664,2.017-16.785,1.846c-4.174-0.171-8.113-0.332-16.182,1.809c-2.975,0.79-5.209,1.549-6.922,2.27  c1.926-0.56,4.422-1.076,7.734-1.5C72.656,37.693,76.818,38.42,80.837,39.123z"></path><path d="M81.294,44.247c3.82,1.183,7.768,2.406,16.133,2.466c-0.072-1.51-0.188-3.213-0.336-4.948  c-8.334,0.985-12.473,0.269-16.465-0.429c-4.113-0.719-7.998-1.397-16.279-0.338c-2.715,0.348-4.844,0.75-6.545,1.178  c1.85-0.238,4.137-0.387,7.023-0.387C73.361,41.789,77.394,43.039,81.294,44.247z"></path><path d="M47.907,42.533c0.033,0.154,0.061,0.279,0.091,0.394V14.662c-0.774-0.412-0.917-1.044-1.037-1.609  c-0.251-1.177-0.717-3.367-9.329-6.873c-6.209-2.527-9.365-2.8-12.706-3.089c-3.27-0.283-6.647-0.576-12.981-3.089L3.382,25.25  c7.81,3.121,11.938,3.479,15.933,3.824c4.068,0.353,8.274,0.717,16.179,3.934C46.866,37.636,47.518,40.702,47.907,42.533z"></path></svg></g></svg>